<svg width="383" height="383" viewBox="0 0 383 383" fill="none" xmlns="http://www.w3.org/2000/svg">
<g filter="url(#filter0_i_65_168)">
<circle cx="191.5" cy="191.5" r="191.5" fill="white"/>
</g>
<circle cx="191.5" cy="191.5" r="189" stroke="#FF0000" stroke-opacity="0.25" stroke-width="5"/>
<path d="M149.01 189.13L149.55 188.48L149.53 64C168.26 69.37 187.2 74.18 205.75 80.16C229.46 87.81 256.12 95.63 264.78 121.91C267.12 129.02 267.08 134.54 267.32 141.88C267.83 157.62 269.51 173.58 258.44 186.38C246.57 200.1 229.6 196.69 215.37 188.86L215.21 111.01C214.13 100.62 198.97 94.21 196.91 107.57C196.93 143.48 196.91 179.39 196.91 215.3V242.52C196.91 242.69 196.91 242.87 196.91 243.04V244.35C196.91 250.09 197.17 255.98 197.17 261.63V262.68C197.17 262.68 196.89 263.08 196.89 263.57C196.89 271.91 196.93 280.26 196.91 288.6C188.92 286.29 180.83 283.91 172.89 281.34C165.07 278.81 157.35 276.01 149.57 273.38C149.49 268.51 149.55 263.63 149.53 258.76C149.52 254.68 149.27 250.46 149.27 246.46C149.27 241.83 149.27 236.96 149.27 232.32C149.27 226.39 149.53 220.26 149.53 214.26C149.53 209.81 149.53 205.36 149.53 200.91C149.53 200.74 149.53 200.56 149.53 200.39C149.53 197.24 149.83 193.34 149.54 190.3C149.49 189.81 149.31 189.5 149 189.14L149.01 189.13Z" fill="#DA212B"/>
<path d="M196.92 215.31C208.03 209.99 220.22 206.41 232.43 204.62C253.63 201.51 277.1 202.79 297.97 207.58C306.16 209.46 316.88 212.42 323.48 217.67C342.9 233.08 316.57 245.03 303.72 250.13L265.24 237.3C271.53 235.19 278.51 233.73 284.43 230.71C295.55 225.03 288.27 220.13 279.73 219.01C264.39 216.99 250.13 223.31 236.18 228.66C236.32 227.98 235.87 228.11 235.45 227.96C225.21 224.16 213.94 220.69 203.51 217.48C201.52 216.86 199.46 216.35 197.43 215.84C196.89 217.14 197.42 218.18 197.43 219.36C197.58 226.61 197.66 234.41 197.42 241.63C197.4 242.13 197.69 242.68 196.9 242.53V215.31H196.92Z" fill="#3568B1"/>
<path d="M64.72 218.19L102.42 231.28C102.5 231.93 102.02 231.79 101.65 231.93C99.15 232.92 96.58 233.78 94.13 234.89C90.54 236.53 80.21 241.42 89.28 244.02C102.99 247.96 116.95 244.27 129.91 239.64L149.28 246.45C149.28 250.46 149.53 254.67 149.54 258.75C147.45 259.63 145.03 260.1 142.78 260.5C125.52 263.57 103.77 262.96 86.35 260.81C74.69 259.37 48.24 254.79 43.13 242.77C37.35 229.19 55.17 221.8 64.72 218.17V218.19Z" fill="#E9BF21"/>
<path d="M265.24 237.3L303.72 250.13C280.94 259.17 257.08 266.42 234.09 274.74L197.18 262.7V261.65L265.24 237.3Z" fill="#0DAA96"/>
<path d="M149.54 200.39C149.54 200.56 149.54 200.74 149.54 200.91L149.28 214.26C133.68 219.92 118.2 226.3 102.42 231.28L64.7197 218.19C86.8997 209.75 110.01 201.96 132.52 194.37L149.54 200.39Z" fill="#0DAA96"/>
<path d="M234.09 274.73C234.09 274.73 233.79 275.21 233.31 275.39C221.18 279.79 209.13 284.48 196.91 288.61C196.93 280.27 196.89 271.92 196.89 263.58C196.89 263.1 197.17 262.74 197.17 262.69L234.08 274.73H234.09Z" fill="#E9BF21"/>
<path d="M149.01 189.13C149.32 189.49 149.5 189.8 149.55 190.29C149.84 193.33 149.53 197.23 149.54 200.38L132.52 194.36C137.98 192.52 143.51 190.83 149.01 189.12V189.13Z" fill="#3568B1"/>
<path d="M196.92 242.53C197.71 242.68 197.43 242.13 197.44 241.63C197.68 234.4 197.6 226.6 197.45 219.36C197.43 218.18 196.9 217.14 197.45 215.84C199.47 216.35 201.53 216.87 203.53 217.48C213.95 220.7 225.22 224.16 235.47 227.96C235.88 228.11 236.33 227.98 236.2 228.66C223.31 233.6 210.57 239.04 197.72 244.1C197.58 243.56 197.62 242.89 196.93 243.05C196.93 242.88 196.93 242.7 196.93 242.53H196.92Z" fill="#0DAA96"/>
<path d="M149.27 232.32C149.27 236.96 149.27 241.83 149.27 246.46L129.9 239.65C134.52 238 139.1 235.96 143.71 234.22C145.53 233.53 147.37 232.76 149.27 232.32Z" fill="#0DAA96"/>
<path d="M149.54 214.26H149.28L149.54 200.91C149.54 205.36 149.54 209.81 149.54 214.26Z" fill="#3568B1"/>
<path d="M196.92 243.06C197.6 242.9 197.57 243.57 197.71 244.11C197.45 244.21 197.22 244.36 196.92 244.37V243.06Z" fill="#3568B1"/>
<defs>
<filter id="filter0_i_65_168" x="0" y="0" width="398" height="398" filterUnits="userSpaceOnUse" color-interpolation-filters="sRGB">
<feFlood flood-opacity="0" result="BackgroundImageFix"/>
<feBlend mode="normal" in="SourceGraphic" in2="BackgroundImageFix" result="shape"/>
<feColorMatrix in="SourceAlpha" type="matrix" values="0 0 0 0 0 0 0 0 0 0 0 0 0 0 0 0 0 0 127 0" result="hardAlpha"/>
<feMorphology radius="8" operator="erode" in="SourceAlpha" result="effect1_innerShadow_65_168"/>
<feOffset dx="15" dy="15"/>
<feGaussianBlur stdDeviation="4"/>
<feComposite in2="hardAlpha" operator="arithmetic" k2="-1" k3="1"/>
<feColorMatrix type="matrix" values="0 0 0 0 0 0 0 0 0 0 0 0 0 0 0 0 0 0 0.15 0"/>
<feBlend mode="normal" in2="shape" result="effect1_innerShadow_65_168"/>
</filter>
</defs>
</svg>
