<svg width="419" height="90" viewBox="0 0 419 90" fill="none" xmlns="http://www.w3.org/2000/svg">
<path d="M85.9921 82.5H0L42.8817 7.5L86 82.5H85.9921ZM17.2962 72.4884H68.6959L43.2366 27.7763L17.2962 72.4884Z" fill="#6BE4DF"></path>
<path d="M189.141 70.5738C187.932 71.7551 187.072 73.2709 185.963 74.5376C166.458 96.612 131.712 94.8401 114.936 70.5738C96.7312 44.251 111.474 7.47447 142.595 0.991613C177.241 -6.22422 206.329 27.1935 194.195 60.5756C192.866 64.2333 190.342 67.4285 189.141 70.5738ZM187.947 44.9626C187.947 25.0728 171.839 8.94752 151.978 8.94752C132.117 8.94752 116.009 25.0728 116.009 44.9626C116.009 64.8524 132.117 80.9777 151.978 80.9777C171.839 80.9777 187.947 64.8524 187.947 44.9626Z" fill="#F75F66"></path>
<path d="M233 7.5H308V82.5H233V7.5ZM298.326 17.1413H242.429V72.8587H298.319V17.1413H298.326Z" fill="#F69DC8"></path>
<path d="M416.166 72.7986C417.114 73.7711 417.977 74.843 418.992 75.7542L412.241 82.477C409.423 79.9349 406.62 77.1631 403.901 74.4525C396.431 67.0023 389.153 59.3453 381.576 51.9946L361.207 72.3239C357.877 75.647 354.433 78.863 351.194 82.2703L350.713 82.5L344 75.7848L344.687 74.9273L374.642 45.0038L344.092 14.3683L344.206 13.7711L350.706 7.5L381.408 38.0054L412.248 7.52297L419 14.2458L388.343 44.9962C397.455 54.4219 407.024 63.4112 416.174 72.791L416.166 72.7986Z" fill="#767EE1"></path>
</svg>
